<svg xmlns="http://www.w3.org/2000/svg" viewBox="0 0 256 256">
  <g fill="none" stroke-miterlimit="10" font-family="none" font-size="none" font-weight="none"
    style="mix-blend-mode:normal" text-anchor="none">
    <path fill="#fac843"
      d="M131.39494202 174.53634354c.5704213-40.48164152 33.85097904-72.82200656 74.31726057-72.25190864 8.72932132.12304156 17.08191882 1.7769076 24.80233173 4.68301654-9.62020038-47.1255621-50.96410288-82.87778375-101.03263786-83.58313038C71.70167951 22.57033893 24.2066694 68.74582943 23.39270343 126.5260464c-.81398214 57.77989358 45.36147603 105.27458033 103.14169298 106.0894679 9.7324091.13743143 19.17637388-1.0719652 28.15177831-3.43578586-14.60378754-13.61056248-23.61072036-33.1096577-23.3074011-54.64370826z" />
    <path fill="#f57654"
      d="M176.74278809 175.17531887c-.21730335 15.42821446 12.11385333 28.1123274 27.54336126 28.33060085 15.4278911.21665662 28.11200404-12.11498511 28.32866065-27.54352295.21827346-15.42869951-12.11336827-28.1123274-27.54287621-28.32979243-15.4278911-.21730335-28.11184235 12.114015-28.3291457 27.54271453z" />
  </g>
</svg>